<svg width="413" height="107" viewBox="0 0 413 107" fill="none" xmlns="http://www.w3.org/2000/svg">
<path fill-rule="evenodd" clip-rule="evenodd" d="M372.29 7.07579C372.935 9.16349 374.08 11.1292 375.734 12.7889C377.388 14.4485 379.344 15.5953 381.419 16.2409C382.895 16.7003 383.484 16.4028 383.639 16.3066C383.851 16.1753 384.245 15.7881 384.457 14.7895C384.903 12.6914 384.155 9.32648 381.65 6.8124C379.146 4.29887 375.803 3.55663 373.73 4.00005C372.745 4.21066 372.361 4.60235 372.228 4.81841C372.127 4.98252 371.83 5.58548 372.29 7.07579ZM409.121 74.5521V32.107C409.121 28.033 405.834 24.754 401.808 24.754C400.12 24.754 398.304 25.5444 395.923 27.1571C395.017 27.7706 394.14 28.4229 393.189 29.1296C392.901 29.344 392.606 29.5634 392.301 29.7883C391.048 30.7138 389.662 31.7073 388.204 32.5483C386.068 33.7813 383.589 34.4857 380.957 34.4857C378.304 34.4857 375.807 33.7704 373.66 32.5199C372.214 31.6779 370.838 30.6859 369.592 29.7632C369.303 29.5492 369.023 29.34 368.749 29.1355C367.79 28.4201 366.905 27.7605 365.994 27.1424C363.628 25.538 361.823 24.754 360.146 24.754C356.146 24.754 352.879 28.0126 352.879 32.0615V53.1425C352.879 56.9255 355.931 59.9685 359.667 59.9685C363.402 59.9685 366.455 56.9255 366.455 53.1425V52.9898C366.455 44.9485 372.954 38.4061 381 38.4061C389.046 38.4061 395.545 44.9485 395.545 52.9898V63.8473C395.545 77.8007 384.271 89.1358 370.333 89.1358H359.667C355.931 89.1358 352.879 92.1788 352.879 95.9618C352.879 99.7448 355.931 102.788 359.667 102.788H381C396.518 102.788 409.121 90.1594 409.121 74.5521ZM384.398 4.07459C391.113 10.8135 389.337 22.7668 380.267 19.9445C377.603 19.1158 375.095 17.6432 372.987 15.5267C370.878 13.4103 369.41 10.8938 368.584 8.22071C365.772 -0.882074 377.683 -2.66432 384.398 4.07459ZM390.831 26.0496C389.311 27.1803 387.802 28.3024 386.266 29.1888C384.702 30.0909 382.89 30.6069 380.957 30.6069C379.009 30.6069 377.183 30.083 375.611 29.1679C374.097 28.2862 372.609 27.1757 371.109 26.0566C367.667 23.4886 364.164 20.8752 360.146 20.8752C353.99 20.8752 349 25.8835 349 32.0615V53.1425C349 59.0546 353.776 63.8473 359.667 63.8473C365.558 63.8473 370.333 59.0546 370.333 53.1425V52.9898C370.333 47.0776 375.109 42.2849 381 42.2849C386.891 42.2849 391.667 47.0776 391.667 52.9898V63.8473C391.667 75.6715 382.115 85.257 370.333 85.257H359.667C353.776 85.257 349 90.0497 349 95.9618C349 101.874 353.776 106.667 359.667 106.667H381C398.673 106.667 413 92.2885 413 74.5521V32.107C413 25.9039 407.989 20.8752 401.808 20.8752C397.788 20.8752 394.28 23.4844 390.831 26.0496Z" fill="url(#paint0_linear_1257_26)"/>
<path d="M73.4119 87.5H74.8916H147.51H149.01H149.024H150.524H213.791H215.261H215.291H216.761H272H273.5V86V82.0964V80.5964H272H264.533C267.577 77.0974 269.089 72.6958 269.089 67.4804C269.089 61.9893 267.311 57.547 263.623 54.3656C260.128 51.2999 255.008 49.0146 248.412 47.4131C245.228 46.6326 242.621 45.8886 240.58 45.1829C238.527 44.473 237.132 43.8303 236.304 43.2764C234.755 42.1823 233.984 40.6884 233.984 38.6117C233.984 36.4559 234.765 35.0261 236.264 34.0641C237.94 32.9885 240.157 32.3952 243.015 32.3952C245.958 32.3952 248.945 32.9084 251.981 33.9484C255.029 34.9925 257.351 36.2958 259.018 37.8142L260.277 38.9613L261.256 37.567L266.927 29.4874L267.717 28.362L266.664 27.4774C263.625 24.923 260.034 22.9601 255.915 21.5754C251.807 20.1942 247.655 19.5 243.465 19.5C236.956 19.5 231.374 21.1777 226.811 24.6131C222.185 28.0798 219.912 33.0606 219.912 39.338C219.912 45.5362 221.891 50.3891 226.064 53.5885C228.045 55.1969 230.301 56.5067 232.822 57.5238L232.838 57.5299L232.853 57.5357C235.337 58.475 238.915 59.5206 243.553 60.6749L243.562 60.6771L243.571 60.6792C248.157 61.7604 251.14 62.9461 252.738 64.1423L252.76 64.1586L252.782 64.174C254.27 65.2053 255.017 66.6351 255.017 68.6606C255.017 70.5787 254.245 72.1085 252.566 73.3546C250.927 74.5554 248.577 75.2402 245.356 75.2402C238.958 75.2402 232.695 72.6468 226.54 67.2596L225.378 66.242L224.395 67.4341L217.734 75.5137L216.836 76.6023L217.868 77.5647C219.04 78.6581 220.268 79.6687 221.551 80.5964H216.761H215.291H215.261H213.791H208.038C209.387 79.439 210.754 78.0942 212.14 76.569L213.086 75.5288L212.109 74.5178L205.268 67.4368L204.237 66.3696L203.159 67.3891C200.359 70.0365 197.728 71.9275 195.27 73.1129C192.872 74.2095 189.95 74.7863 186.456 74.7863C180.991 74.7863 176.268 72.8084 172.219 68.7846C168.253 64.7246 166.263 59.724 166.263 53.6816C166.263 47.5774 168.282 42.6874 172.279 38.8809L172.286 38.8733C176.31 34.9846 181.269 33.0307 187.267 33.0307C190.711 33.0307 193.619 33.581 196.029 34.6309L196.04 34.6357C198.516 35.69 201.216 37.5887 204.136 40.4157L205.25 41.4936L206.291 40.3457L213.042 32.9015L213.952 31.8973L213.045 30.89C206.219 23.3113 197.653 19.5 187.447 19.5C177.367 19.5 168.908 22.7774 162.183 29.3701L162.178 29.3751C155.519 35.9639 152.191 44.1608 152.191 53.8631C152.191 60.2628 153.593 66.0539 156.428 71.2L156.435 71.2122C158.505 74.8888 161.114 78.0198 164.258 80.5964H150.524H149.024H149.01H147.51H133.322C136.553 78.0326 139.223 74.8726 141.327 71.1264C144.342 65.867 145.844 60.0719 145.844 53.7723C145.844 44.0709 142.516 35.9019 135.854 29.3721C129.199 22.788 120.953 19.5 111.218 19.5C101.483 19.5 93.237 22.7883 86.5815 29.3729C79.9199 35.9026 76.5927 44.0713 76.5927 53.7723C76.5927 60.1258 78.0614 65.922 81.0193 71.1266L81.0192 71.1267L81.0261 71.1385C83.1837 74.8558 85.8947 78.011 89.1533 80.5964H74.8916H73.4119H73.3916H71.9119H58.0749C61.2848 78.284 63.8621 75.4385 65.7841 72.0573C68.5826 67.1343 69.9407 61.1671 69.9407 54.2263C69.9407 43.8621 66.802 35.6424 60.3611 29.788C53.9349 23.8861 44.8502 21.0433 33.335 21.0433H11.7314H10.2314V22.5433V80.5964H3H1.5V82.0964V86V87.5H3H71.9119H73.3916H73.4119ZM125.884 38.5563L125.891 38.5638C129.933 42.7533 131.952 47.823 131.952 53.8631C131.952 59.8385 129.936 64.8792 125.891 69.0716L125.884 69.0792C121.909 73.257 117.053 75.331 111.218 75.331C105.385 75.331 100.495 73.2575 96.4585 69.0752C92.4738 64.8849 90.4845 59.8431 90.4845 53.8631C90.4845 47.8182 92.4768 42.7472 96.4592 38.5596C100.495 34.3778 105.385 32.3045 111.218 32.3045C117.053 32.3045 121.909 34.3785 125.884 38.5563ZM32.9749 33.9385C41.0388 33.9385 46.8065 35.7171 50.5494 39.0115C54.2558 42.2737 56.229 47.2481 56.229 54.2263C56.229 61.0775 54.281 66.0351 50.6019 69.3637C46.9514 72.6603 41.5452 74.4232 34.1451 74.4232H23.8532V33.9385H32.9749Z" stroke="url(#paint1_linear_1257_26)" stroke-width="3"/>
<circle cx="310.5" cy="53.5" r="4" stroke="#2CBDEE" stroke-width="3"/>
<defs>
<linearGradient id="paint0_linear_1257_26" x1="349.086" y1="53.3333" x2="412.914" y2="53.3333" gradientUnits="userSpaceOnUse">
<stop stop-color="#2CBDEE"/>
<stop offset="1" stop-color="#C53156"/>
</linearGradient>
<linearGradient id="paint1_linear_1257_26" x1="3.36188" y1="53.5" x2="271.638" y2="53.5" gradientUnits="userSpaceOnUse">
<stop stop-color="#C53156"/>
<stop offset="1" stop-color="#2CBDEE"/>
</linearGradient>
</defs>
</svg>
